HIERARCHY
ROOT Root
{
  OFFSET 0.0 0.0 0.0
  CHANNELS 6 Xposition Yposition Zposition Zrotation Yrotation Xrotation
  JOINT Hips
  {
    OFFSET 0.0 100.0 0.0
    CHANNELS 6 Xposition Yposition Zposition Zrotation Yrotation Xrotation
    JOINT Spine1
    {
      OFFSET 5.003913 -0.037094 -0.013727
      CHANNELS 3 Zrotation Yrotation Xrotation
      JOINT Spine2
      {
        OFFSET 7.125363 -1e-06 0.0
        CHANNELS 3 Zrotation Yrotation Xrotation
        JOINT Chest
        {
          OFFSET 7.594027 1e-06 0.0
          CHANNELS 3 Zrotation Yrotation Xrotation
          JOINT Neck1
          {
            OFFSET 26.313086 -0.460272 -0.181672
            CHANNELS 3 Zrotation Yrotation Xrotation
            JOINT Neck2
            {
              OFFSET 8.045911 0.0 0.0
              CHANNELS 3 Zrotation Yrotation Xrotation
              JOINT Head
              {
                OFFSET 6.432774 0.0 0.0
                CHANNELS 3 Zrotation Yrotation Xrotation
                JOINT HeadEnd
                {
                  OFFSET 16.169773 0.06451 0.00362
                  CHANNELS 3 Zrotation Yrotation Xrotation
                }
                JOINT Jaw
                {
                  OFFSET 0.108741 3.12938 0.002639
                  CHANNELS 3 Zrotation Yrotation Xrotation
                }
                JOINT LeftEye
                {
                  OFFSET 4.45173 8.166359 3.206392
                  CHANNELS 3 Zrotation Yrotation Xrotation
                }
                JOINT RightEye
                {
                  OFFSET 4.436895 8.135758 -3.222429
                  CHANNELS 3 Zrotation Yrotation Xrotation
                }
              }
            }
          }
          JOINT LeftShoulder
          {
            OFFSET 23.218927 5.195579 1.621656
            CHANNELS 3 Zrotation Yrotation Xrotation
            JOINT LeftArm
            {
              OFFSET 15.902118 2e-06 -2e-06
              CHANNELS 3 Zrotation Yrotation Xrotation
              JOINT LeftForeArm
              {
                OFFSET 28.739307 0.0 -1e-06
                CHANNELS 3 Zrotation Yrotation Xrotation
                JOINT LeftHand
                {
                  OFFSET 27.093981 -4e-06 0.0
                  CHANNELS 3 Zrotation Yrotation Xrotation
                  JOINT LeftHandThumb1
                  {
                    OFFSET 2.276781 3.380274 0.83384
                    CHANNELS 3 Zrotation Yrotation Xrotation
                    JOINT LeftHandThumb2
                    {
                      OFFSET 4.705309 -1e-06 -1e-06
                      CHANNELS 3 Zrotation Yrotation Xrotation
                      JOINT LeftHandThumb3
                      {
                        OFFSET 2.798515 0.0 3e-06
                        CHANNELS 3 Zrotation Yrotation Xrotation
                        JOINT LeftHandThumbEnd
                        {
                          OFFSET 3.180793 4e-06 -4e-06
                          CHANNELS 3 Zrotation Yrotation Xrotation
                        }
                      }
                    }
                  }
                  JOINT LeftHandIndex1
                  {
                    OFFSET 3.247786 2.352677 0.137192
                    CHANNELS 3 Zrotation Yrotation Xrotation
                    JOINT LeftHandIndex2
                    {
                      OFFSET 6.367095 1e-06 0.0
                      CHANNELS 3 Zrotation Yrotation Xrotation
                      JOINT LeftHandIndex3
                      {
                        OFFSET 3.662364 0.0 0.0
                        CHANNELS 3 Zrotation Yrotation Xrotation
                        JOINT LeftHandIndex4
                        {
                          OFFSET 2.329242 4e-06 -4e-06
                          CHANNELS 3 Zrotation Yrotation Xrotation
                          JOINT LeftHandIndexEnd
                          {
                            OFFSET 2.767823 1e-06 0.0
                            CHANNELS 3 Zrotation Yrotation Xrotation
                          }
                        }
                      }
                    }
                  }
                  JOINT LeftHandMiddle1
                  {
                    OFFSET 3.163612 0.945023 -0.406112
                    CHANNELS 3 Zrotation Yrotation Xrotation
                    JOINT LeftHandMiddle2
                    {
                      OFFSET 6.276789 3e-06 0.0
                      CHANNELS 3 Zrotation Yrotation Xrotation
                      JOINT LeftHandMiddle3
                      {
                        OFFSET 4.35652 -1e-06 4e-06
                        CHANNELS 3 Zrotation Yrotation Xrotation
                        JOINT LeftHandMiddle4
                        {
                          OFFSET 2.996877 0.0 8e-06
                          CHANNELS 3 Zrotation Yrotation Xrotation
                          JOINT LeftHandMiddleEnd
                          {
                            OFFSET 2.323256 3e-06 -4e-06
                            CHANNELS 3 Zrotation Yrotation Xrotation
                          }
                        }
                      }
                    }
                  }
                  JOINT LeftHandRing1
                  {
                    OFFSET 2.882606 -0.309162 0.107445
                    CHANNELS 3 Zrotation Yrotation Xrotation
                    JOINT LeftHandRing2
                    {
                      OFFSET 6.033198 0.0 4e-06
                      CHANNELS 3 Zrotation Yrotation Xrotation
                      JOINT LeftHandRing3
                      {
                        OFFSET 4.350578 3e-06 0.0
                        CHANNELS 3 Zrotation Yrotation Xrotation
                        JOINT LeftHandRing4
                        {
                          OFFSET 2.651321 2e-06 -7e-06
                          CHANNELS 3 Zrotation Yrotation Xrotation
                          JOINT LeftHandRingEnd
                          {
                            OFFSET 1.937663 1e-06 -4e-06
                            CHANNELS 3 Zrotation Yrotation Xrotation
                          }
                        }
                      }
                    }
                  }
                  JOINT LeftHandPinky1
                  {
                    OFFSET 2.865315 -1.525436 0.575687
                    CHANNELS 3 Zrotation Yrotation Xrotation
                    JOINT LeftHandPinky2
                    {
                      OFFSET 5.54936 1e-06 -8e-06
                      CHANNELS 3 Zrotation Yrotation Xrotation
                      JOINT LeftHandPinky3
                      {
                        OFFSET 3.070974 0.0 -4e-06
                        CHANNELS 3 Zrotation Yrotation Xrotation
                        JOINT LeftHandPinky4
                        {
                          OFFSET 1.549672 1e-06 0.0
                          CHANNELS 3 Zrotation Yrotation Xrotation
                          JOINT LeftHandPinkyEnd
                          {
                            OFFSET 1.952123 0.0 0.0
                            CHANNELS 3 Zrotation Yrotation Xrotation
                          }
                        }
                      }
                    }
                  }
                }
              }
            }
          }
          JOINT RightShoulder
          {
            OFFSET 23.161716 5.296122 -1.380114
            CHANNELS 3 Zrotation Yrotation Xrotation
            JOINT RightArm
            {
              OFFSET -16.027195 -2e-06 1.1e-05
              CHANNELS 3 Zrotation Yrotation Xrotation
              JOINT RightForeArm
              {
                OFFSET -28.736639 4e-06 2e-06
                CHANNELS 3 Zrotation Yrotation Xrotation
                JOINT RightHand
                {
                  OFFSET -27.133619 6e-06 0.0
                  CHANNELS 3 Zrotation Yrotation Xrotation
                  JOINT RightHandThumb1
                  {
                    OFFSET -2.274328 -3.351035 -0.83067
                    CHANNELS 3 Zrotation Yrotation Xrotation
                    JOINT RightHandThumb2
                    {
                      OFFSET -4.703594 -3e-06 2e-06
                      CHANNELS 3 Zrotation Yrotation Xrotation
                      JOINT RightHandThumb3
                      {
                        OFFSET -2.794935 -4e-06 -3e-06
                        CHANNELS 3 Zrotation Yrotation Xrotation
                        JOINT RightHandThumbEnd
                        {
                          OFFSET -3.183852 4e-06 1e-06
                          CHANNELS 3 Zrotation Yrotation Xrotation
                        }
                      }
                    }
                  }
                  JOINT RightHandIndex1
                  {
                    OFFSET -3.253496 -2.33755 -0.127667
                    CHANNELS 3 Zrotation Yrotation Xrotation
                    JOINT RightHandIndex2
                    {
                      OFFSET -6.344434 0.0 0.0
                      CHANNELS 3 Zrotation Yrotation Xrotation
                      JOINT RightHandIndex3
                      {
                        OFFSET -3.654871 0.0 -8e-06
                        CHANNELS 3 Zrotation Yrotation Xrotation
                        JOINT RightHandIndex4
                        {
                          OFFSET -2.327586 -1e-06 0.0
                          CHANNELS 3 Zrotation Yrotation Xrotation
                          JOINT RightHandIndexEnd
                          {
                            OFFSET -2.770001 3e-06 8e-06
                            CHANNELS 3 Zrotation Yrotation Xrotation
                          }
                        }
                      }
                    }
                  }
                  JOINT RightHandMiddle1
                  {
                    OFFSET -3.168223 -0.944764 0.411762
                    CHANNELS 3 Zrotation Yrotation Xrotation
                    JOINT RightHandMiddle2
                    {
                      OFFSET -6.266691 -1e-06 -4e-06
                      CHANNELS 3 Zrotation Yrotation Xrotation
                      JOINT RightHandMiddle3
                      {
                        OFFSET -4.348901 0.0 0.0
                        CHANNELS 3 Zrotation Yrotation Xrotation
                        JOINT RightHandMiddle4
                        {
                          OFFSET -3.00024 2e-06 -4e-06
                          CHANNELS 3 Zrotation Yrotation Xrotation
                          JOINT RightHandMiddleEnd
                          {
                            OFFSET -2.321477 -4e-06 -4e-06
                            CHANNELS 3 Zrotation Yrotation Xrotation
                          }
                        }
                      }
                    }
                  }
                  JOINT RightHandRing1
                  {
                    OFFSET -2.885654 0.293261 -0.119232
                    CHANNELS 3 Zrotation Yrotation Xrotation
                    JOINT RightHandRing2
                    {
                      OFFSET -6.032835 -1e-06 -4e-06
                      CHANNELS 3 Zrotation Yrotation Xrotation
                      JOINT RightHandRing3
                      {
                        OFFSET -4.33881 0.0 -4e-06
                        CHANNELS 3 Zrotation Yrotation Xrotation
                        JOINT RightHandRing4
                        {
                          OFFSET -2.654903 -4e-06 -4e-06
                          CHANNELS 3 Zrotation Yrotation Xrotation
                          JOINT RightHandRingEnd
                          {
                            OFFSET -1.935122 0.0 4e-06
                            CHANNELS 3 Zrotation Yrotation Xrotation
                          }
                        }
                      }
                    }
                  }
                  JOINT RightHandPinky1
                  {
                    OFFSET -2.866241 1.503904 -0.60527
                    CHANNELS 3 Zrotation Yrotation Xrotation
                    JOINT RightHandPinky2
                    {
                      OFFSET -5.553177 -2e-06 0.0
                      CHANNELS 3 Zrotation Yrotation Xrotation
                      JOINT RightHandPinky3
                      {
                        OFFSET -3.062664 -1e-06 -4e-06
                        CHANNELS 3 Zrotation Yrotation Xrotation
                        JOINT RightHandPinky4
                        {
                          OFFSET -1.546529 2e-06 4e-06
                          CHANNELS 3 Zrotation Yrotation Xrotation
                          JOINT RightHandPinkyEnd
                          {
                            OFFSET -1.952341 0.0 -4e-06
                            CHANNELS 3 Zrotation Yrotation Xrotation
                          }
                        }
                      }
                    }
                  }
                }
              }
            }
          }
        }
      }
    }
    JOINT LeftLeg
    {
      OFFSET -8.443107 2.567604 10.043214
      CHANNELS 3 Zrotation Yrotation Xrotation
      JOINT LeftShin
      {
        OFFSET 43.229198 1e-06 -1e-06
        CHANNELS 3 Zrotation Yrotation Xrotation
        JOINT LeftFoot
        {
          OFFSET 42.298611 1e-06 1e-06
          CHANNELS 3 Zrotation Yrotation Xrotation
          JOINT LeftToeBase
          {
            OFFSET 14.165858 1e-06 0.0
            CHANNELS 3 Zrotation Yrotation Xrotation
            JOINT LeftToeEnd
            {
              OFFSET 6.7141 -0.234461 0.0
              CHANNELS 3 Zrotation Yrotation Xrotation
            }
          }
        }
      }
    }
    JOINT RightLeg
    {
      OFFSET -8.303923 2.592729 -10.047278
      CHANNELS 3 Zrotation Yrotation Xrotation
      JOINT RightShin
      {
        OFFSET -43.369682 0.0 1e-06
        CHANNELS 3 Zrotation Yrotation Xrotation
        JOINT RightFoot
        {
          OFFSET -42.260784 4e-06 2e-06
          CHANNELS 3 Zrotation Yrotation Xrotation
          JOINT RightToeBase
          {
            OFFSET -14.222245 -2e-06 -1e-06
            CHANNELS 3 Zrotation Yrotation Xrotation
            JOINT RightToeEnd
            {
              OFFSET -6.660062 0.232574 -2e-06
              CHANNELS 3 Zrotation Yrotation Xrotation
            }
          }
        }
      }
    }
  }
}
MOTION
Frames: 4
Frame Time: 0.03333333333333333
0.0 0.0 0.0 0.0 -0.0 0.0 1.526043 98.595421 5.401433 89.389984 1.498349 90.152519 -2.50055 1.342607 -0.339788 -12.149017 -0.381668 -0.19645 18.588528 -0.311712 -2.786526 23.623501 -0.403675 2.504566 -2.528284 -0.600381 -1.902979 -34.126202 -1.089907 -2.673581 6e-06 -0.0 -0.0 0.033092 0.026851 0.029631 0.075024 0.037776 0.029836 0.05248 0.013332 0.03064 -110.198463 -74.786667 131.561951 55.292084 -54.525665 2.098147 21.442661 0.08974 -0.033129 -2.75121 2.542311 5.053761 17.636641 -26.322739 52.411201 -19.466667 -14.3956 29.410395 -1e-06 -8.774824 -1e-06 16.118578 -17.936922 6.097588 -0.609777 -1.795654 -3.889332 -4.807089 -11.046813 -2.93785 7e-06 -20.976019 -4e-06 -5.019972 -25.033566 -4.031879 5e-06 -1e-06 -0.0 -10.634537 -5.686972 -3.565592 10.573277 -17.922956 -3.113898 4e-06 -13.821213 -1e-06 -0.501778 -31.181507 -4.027012 -11.5028 -59.851151 7.327037 -13.982717 -7.150199 -2.875042 13.772732 -8.401496 -3.218243 0.347735 -34.211559 0.771655 -0.963027 -17.733372 2.621022 -1e-06 -1e-06 1e-06 -17.346422 -20.095221 -4.201783 21.757561 -1.638376 3.866427 1e-06 -6.338825 1e-06 -1.697588 -22.591751 -6.194006 0.0 -6e-06 -1e-06 49.806496 -75.848137 152.672806 45.703106 -57.843884 -9.342571 27.948553 0.077326 0.200047 -4.096931 8.098594 5.57935 22.182117 -20.375904 49.933327 -16.701817 -16.743532 28.47654 -3e-06 -12.690603 0.0 16.085108 -17.763491 2.738729 -0.10592 -1.513857 -4.275883 -5.039042 -5.612872 -2.953559 4e-06 -11.020525 -1e-06 -6.111298 -15.895334 -3.840471 0.0 0.0 -2e-06 -10.283371 -5.680288 -4.341839 11.028296 -11.302406 -2.372633 -1.384269 -14.238583 -6.320124 -0.625437 -26.924194 -3.8276 -4.053196 -49.681343 -3.865448 -13.708526 -7.363478 -3.720942 18.141151 -14.05274 -3.242674 5e-06 -18.787271 0.0 -0.429711 -8.456046 2.555504 -0.0 -2e-06 1e-06 -15.923538 -20.094484 -5.473586 30.419222 -7.19083 1.735926 1e-06 -8.162927 1e-06 -1.861899 -22.861467 -6.167945 -0.0 -4e-06 -1e-06 174.052307 -7.758036 1.529062 22.298721 -0.080336 0.101523 -84.486923 4.188287 -7.213559 -12.038125 1.679033 1.968358 -0.999999 0.0 -0.0 -6.176218 -4.552423 -1.922317 23.438612 -0.091739 0.199236 -84.275269 -2.604641 -9.841928 -11.504241 0.826772 1.547879 -1.000002 0.0 0.0 
0.0 0.0 0.0 0.0 -0.0 0.0 1.523856 98.609955 5.487244 89.322311 1.477927 90.078506 -2.502211 1.357583 -0.363265 -12.13796 -0.349027 -0.141839 18.550262 -0.287989 -2.828748 23.62821 -0.47228 2.510548 -2.52036 -0.57921 -1.834872 -34.0578 -1.107981 -2.6317 6e-06 0.0 0.0 0.025922 0.025513 0.051418 0.057612 0.039517 0.050098 0.037304 0.008852 0.053591 -110.000252 -74.787598 131.400238 55.510975 -54.594391 1.87356 21.368271 0.082124 -0.065437 -2.725557 2.536725 5.16656 17.636625 -26.322725 52.411182 -19.46666 -14.395596 29.410389 1e-06 -8.774821 -3e-06 16.140373 -17.925919 6.074062 -0.609776 -1.795653 -3.889325 -4.807088 -11.046811 -2.937848 4e-06 -20.976015 -5e-06 -5.019973 -25.03356 -4.03188 5e-06 -0.0 -0.0 -10.634532 -5.686969 -3.565587 10.57327 -17.922949 -3.113898 3e-06 -13.821208 -1e-06 -0.501781 -31.181505 -4.027014 -11.484884 -59.890072 7.382437 -13.982714 -7.150199 -2.875038 13.772729 -8.401491 -3.218242 0.347731 -34.211552 0.771653 -0.963028 -17.73337 2.621018 0.0 1e-06 0.0 -17.346418 -20.095215 -4.201776 21.757555 -1.638373 3.866428 1e-06 -6.338822 -0.0 -1.69759 -22.591743 -6.194005 1e-06 -2e-06 -1e-06 49.928913 -75.822235 152.569885 45.69651 -57.969257 -9.683199 27.937746 0.020967 0.193416 -3.946624 8.069984 5.5721 22.182116 -20.375895 49.933315 -16.701813 -16.743528 28.47653 -3e-06 -12.6906 -2e-06 16.091602 -17.729788 2.714414 -0.105919 -1.513855 -4.275879 -5.039039 -5.612869 -2.953557 4e-06 -11.020521 -2e-06 -6.111297 -15.895329 -3.840469 -0.0 -0.0 -1e-06 -10.283369 -5.680287 -4.341837 11.028294 -11.302404 -2.372633 -1.384268 -14.238577 -6.320119 -0.625436 -26.924191 -3.827601 -4.063916 -49.78516 -3.824054 -13.708524 -7.363475 -3.72094 18.141148 -14.052739 -3.242674 7e-06 -18.78727 -1e-06 -0.429713 -8.456041 2.555504 0.0 -0.0 0.0 -15.923532 -20.094482 -5.473586 30.41921 -7.190828 1.735927 2e-06 -8.162922 1e-06 -1.8619 -22.861467 -6.167943 -0.0 -3e-06 -2e-06 174.142075 -7.835937 1.516235 22.227304 -0.073667 0.15258 -84.519073 4.086762 -7.336563 -12.216858 1.692287 1.963327 -0.999998 -0.0 -0.0 -6.065311 -4.472061 -1.903891 23.249792 -0.091858 0.209426 -84.216492 -2.650598 -9.845171 -11.658618 0.825623 1.547523 -1.000002 -0.0 0.0 
0.0 0.0 0.0 0.0 -0.0 0.0 1.525147 98.598427 5.623564 89.246719 1.436285 89.969063 -2.501076 1.383812 -0.391364 -12.149113 -0.328807 -0.117473 18.5734 -0.24991 -2.820345 23.590965 -0.586006 2.519762 -2.548695 -0.546169 -1.789591 -33.980724 -1.120533 -2.609101 7e-06 0.0 -0.0 0.020935 0.026477 0.058046 0.035978 0.040101 0.059051 0.020435 0.009922 0.057534 -109.829117 -74.785271 131.278992 55.655338 -54.64394 1.775781 21.442263 0.083228 -0.081466 -2.732607 2.466331 5.187857 17.636631 -26.322733 52.411213 -19.46666 -14.395598 29.410395 -0.0 -8.774822 -3e-06 16.16077 -17.951874 6.068411 -0.609777 -1.795653 -3.889329 -4.807089 -11.046809 -2.93785 4e-06 -20.976013 -3e-06 -5.019972 -25.033556 -4.031882 6e-06 0.0 -0.0 -10.634535 -5.686969 -3.565592 10.573275 -17.922947 -3.1139 3e-06 -13.821206 -2e-06 -0.501779 -31.181498 -4.027017 -11.53298 -59.883678 7.395656 -13.982716 -7.150196 -2.875045 13.772731 -8.401489 -3.218243 0.347734 -34.211544 0.771656 -0.963032 -17.733366 2.621021 2e-06 1e-06 0.0 -17.346418 -20.095213 -4.201786 21.757559 -1.638375 3.866428 1e-06 -6.338823 -0.0 -1.697591 -22.591743 -6.194004 -1e-06 -3e-06 1e-06 49.983978 -75.784988 152.519608 45.681789 -58.050098 -9.945827 27.933056 -0.020563 0.167334 -3.807982 8.052892 5.617809 22.182114 -20.375898 49.933327 -16.701817 -16.74353 28.476536 -3e-06 -12.690601 -2e-06 16.075689 -17.679575 2.727257 -0.10592 -1.513855 -4.275883 -5.039042 -5.612871 -2.953559 4e-06 -11.020521 -3e-06 -6.111299 -15.895329 -3.840472 0.0 -0.0 0.0 -10.283373 -5.680288 -4.341841 11.028296 -11.302405 -2.372632 -1.384269 -14.238579 -6.320121 -0.625437 -26.924191 -3.827601 -4.079118 -49.802231 -3.786474 -13.708522 -7.363474 -3.72094 18.141148 -14.052736 -3.242674 4e-06 -18.787266 0.0 -0.429711 -8.456046 2.555505 -1e-06 1e-06 0.0 -15.923532 -20.094481 -5.473588 30.41921 -7.190825 1.735924 2e-06 -8.162925 3e-06 -1.861902 -22.861467 -6.167942 -0.0 -1e-06 -1e-06 174.169617 -7.915671 1.491757 22.324907 -0.080074 0.182373 -84.675041 3.987044 -7.361095 -12.310333 1.689863 1.96078 -0.999999 -0.0 -0.0 -6.03405 -4.373625 -1.825434 23.210711 -0.087946 0.205311 -84.256699 -2.751728 -9.919522 -11.707002 0.830935 1.547268 -1.000001 -0.0 -0.0 
0.0 0.0 0.0 0.0 -0.0 0.0 1.522912 98.592468 5.760751 89.147728 1.386751 89.848671 -2.48867 1.419675 -0.412035 -12.162291 -0.309665 -0.119789 18.596594 -0.198421 -2.781394 23.540274 -0.739209 2.519815 -2.577592 -0.518684 -1.722783 -33.977783 -1.104829 -2.606738 6e-06 0.0 -0.0 0.01794 0.026772 0.058383 0.017199 0.039146 0.061614 0.006025 0.011182 0.055151 -109.648994 -74.778915 131.147842 55.760895 -54.724461 1.813858 21.568941 0.11681 -0.073861 -2.7359 2.374968 5.268839 17.636625 -26.322729 52.411194 -19.466656 -14.395597 29.410389 -0.0 -8.77482 -3e-06 16.151743 -17.960264 6.072737 -0.609776 -1.795654 -3.889326 -4.807087 -11.046809 -2.937852 5e-06 -20.976011 -4e-06 -5.019972 -25.033556 -4.031878 7e-06 0.0 1e-06 -10.634531 -5.686969 -3.565588 10.573271 -17.922947 -3.113902 4e-06 -13.821205 -2e-06 -0.501775 -31.181498 -4.027012 -11.555561 -59.868816 7.381739 -13.982712 -7.150197 -2.875043 13.772727 -8.401491 -3.218243 0.347733 -34.211544 0.771655 -0.963028 -17.733362 2.62102 0.0 -2e-06 -1e-06 -17.346416 -20.095215 -4.201782 21.757555 -1.638374 3.866427 1e-06 -6.338822 0.0 -1.697588 -22.591742 -6.194004 -1e-06 -5e-06 -0.0 50.042778 -75.766479 152.45253 45.655014 -58.120914 -9.965249 27.911354 0.000293 0.149953 -3.721041 7.968428 5.601018 22.182114 -20.375898 49.933327 -16.701813 -16.743528 28.476532 -4e-06 -12.6906 -2e-06 16.063986 -17.635202 2.750133 -0.105919 -1.513855 -4.275882 -5.039041 -5.612872 -2.953557 4e-06 -11.020525 -3e-06 -6.111297 -15.895334 -3.840472 -0.0 1e-06 -1e-06 -10.283369 -5.680288 -4.341841 11.028292 -11.302406 -2.372633 -1.384267 -14.238583 -6.320122 -0.625435 -26.924194 -3.827602 -4.109959 -49.775047 -3.738929 -13.708522 -7.363473 -3.720941 18.141146 -14.052737 -3.242674 6e-06 -18.78727 -1e-06 -0.429711 -8.456041 2.555505 -0.0 -0.0 1e-06 -15.923532 -20.094482 -5.473586 30.41921 -7.190825 1.735924 3e-06 -8.162927 1e-06 -1.861903 -22.861469 -6.167944 -1e-06 -1e-06 -2e-06 174.2005 -8.029923 1.417587 22.404697 -0.091948 0.201441 -84.817566 3.891648 -7.367258 -12.364896 1.680169 1.957093 -0.999999 0.0 0.0 -5.980878 -4.239031 -1.713967 23.113611 -0.084314 0.190237 -84.269234 -2.854348 -10.005735 -11.708173 0.829716 1.545424 -1.000003 -0.0 0.0 
